<svg width="1200" height="1500" viewBox="0 0 1200 1500" fill="none" xmlns="http://www.w3.org/2000/svg">
  <rect width="1200" height="1500" rx="84" fill="#F9F2ED"/>
  <circle cx="960" cy="240" r="188" fill="#F4C1C7" fill-opacity="0.65"/>
  <circle cx="258" cy="1198" r="236" fill="#F2C29A" fill-opacity="0.35"/>
  <rect x="150" y="170" width="900" height="1160" rx="56" fill="url(#paint0_linear)"/>
  <path d="M404 494C404 412.262 470.262 346 552 346H648C729.738 346 796 412.262 796 494V1008C796 1089.74 729.738 1156 648 1156H552C470.262 1156 404 1089.74 404 1008V494Z" fill="#FFF9F6"/>
  <path d="M458 558C458 495.592 508.592 445 571 445C633.408 445 684 495.592 684 558V965C684 1027.41 633.408 1078 571 1078C508.592 1078 458 1027.41 458 965V558Z" fill="#F6D9C5"/>
  <path d="M571 445C633.408 445 684 495.592 684 558V653H458V558C458 495.592 508.592 445 571 445Z" fill="#E97D6C"/>
  <path d="M739 474C739 416.562 785.562 370 843 370C900.438 370 947 416.562 947 474V927C947 984.438 900.438 1031 843 1031C785.562 1031 739 984.438 739 927V474Z" fill="#FFF9F6"/>
  <path d="M775 533C775 489.922 809.922 455 853 455C896.078 455 931 489.922 931 533V892C931 935.078 896.078 970 853 970C809.922 970 775 935.078 775 892V533Z" fill="#F0B0B6"/>
  <path d="M853 455C896.078 455 931 489.922 931 533V600H775V533C775 489.922 809.922 455 853 455Z" fill="#C4695C"/>
  <path d="M253 624C253 549.441 313.441 489 388 489C462.559 489 523 549.441 523 624V1087C523 1161.56 462.559 1222 388 1222C313.441 1222 253 1161.56 253 1087V624Z" fill="#FFF9F6"/>
  <path d="M293 707C293 651.772 337.772 607 393 607C448.228 607 493 651.772 493 707V1062C493 1117.23 448.228 1162 393 1162C337.772 1162 293 1117.23 293 1062V707Z" fill="#F6D9C5"/>
  <path d="M393 607C448.228 607 493 651.772 493 707V775H293V707C293 651.772 337.772 607 393 607Z" fill="#E97D6C"/>
  <defs>
    <linearGradient id="paint0_linear" x1="150" y1="170" x2="1073.37" y2="1298.6" gradientUnits="userSpaceOnUse">
      <stop stop-color="#FFF7F1"/>
      <stop offset="1" stop-color="#F8E4D5"/>
    </linearGradient>
  </defs>
</svg>

